<?xml version="1.0" encoding="utf-8"?>
<!-- Generator: Adobe Illustrator 23.0.3, SVG Export Plug-In . SVG Version: 6.00 Build 0)  -->
<svg version="1.1" id="Layer_1" xmlns="http://www.w3.org/2000/svg" xmlns:xlink="http://www.w3.org/1999/xlink" x="0px" y="0px"
	 viewBox="0 0 2418.2 227.4" style="enable-background:new 0 0 2418.2 227.4;" xml:space="preserve">
<style type="text/css">
	.st0{fill:#FFFFFF;}
</style>
<title>2Artboard 4</title>
<path class="st0" d="M187.5,105l0.2,15.5c0.2,7.3-0.9,14.5-3.1,21.5c-0.5,1.4-2.1,5.3-4.8,11.6c-5.5,12.7-14.7,23.6-26.3,31.1
	c-12.8,8.5-27.8,12.9-43.1,12.8c-19.7,0-36.8-7-51.3-21.1c-15.1-14.7-22.6-32.9-22.6-54.5v-16.4h0.2v-5.2h1.7v5.2h3.3V88.1h1.7v17.2
	h3.7V78.3h1.7v27.3h3.7V70.4h1.7v35.2h3.7V65.1h1.7v40.4h3.5V60.7h1.9v44.9h3.5V55.7h1.9v78.9c0.8,2.8,2,5.6,3.5,8.1V53.1h1.7v92.5
	c1.1,1.6,2.4,3,3.7,4.4V50.6h1.7V152c1.1,1.2,2.4,2.3,3.7,3.3V47.7h1.7v108.9c1.1,1,2.4,1.8,3.7,2.5V45.8H92v114.3
	c1.5,0.8,2.8,1.4,3.7,1.7V44h1.7v118.6c1.5,0.5,2.8,0.9,3.7,1.2V42.7h1.7v121.7l3.5,0.6V42.7h1.9v123h3.5v-123h1.7v62.1h52.8
	L187.5,105z M113.4,165.7h3.7v-30.2h-3.7L113.4,165.7z M122.5,165.1v-29.6h-3.7v30.2C119.7,165.6,121,165.4,122.5,165.1z
	 M127.9,135.5h-3.7v29c1.3-0.2,2.5-0.5,3.7-1V135.5z M133.3,161.1v-25.5h-3.7v27.3C130.6,162.4,131.8,161.8,133.3,161.1z
	 M135.1,135.5v24.6c1.3-0.7,2.5-1.5,3.7-2.5v-22H135.1z M140.5,156c1.3-1,2.5-2.2,3.5-3.5v-17h-3.5V156z M149.4,135.5h-3.5v14.7
	c1.4-1.8,2.5-3.8,3.5-5.9V135.5z M151.3,141.7c1.2-1.8,2-4,2.1-6.2h-2.1V141.7z"/>
<path class="st0" d="M262.2,42.7c10.8-0.1,21.3,4,29.2,11.4c9.7,9,14.5,21.3,14.5,36.7c0,12.5-5.2,23.3-15.7,32.3
	c-9.2,8.1-18.4,12.2-27.9,12.2h-0.2v0.4h-29v61.7h-31.9v-93.6h0.4V74.6h-0.2V42.7H262.2z M203.4,74.6v29.2h3.5V74.6H203.4z
	 M212.1,103.8V74.6h-3.5v29.2H212.1z M213.8,74.6v29.2h3.5V74.6H213.8z M219,74.6v29.2h3.5V74.6H219z M224.4,74.6v29.2h3.3V74.6
	H224.4z M229.7,74.6v29.2h3.5V74.6H229.7z M234.9,74.6v29.2h3.5V74.6H234.9z M240.1,74.6v29.2h3.5V74.6H240.1z M245.3,74.6v29.2h3.5
	V74.6H245.3z M250.6,74.6v29.2h3.5V74.6H250.6z M255.8,74.6v29.2h3.5V74.6H255.8z M261.6,103.8c1-0.2,2-0.4,2.9-0.8V75
	c-1-0.2-2.1-0.4-3.1-0.4H261v29.2L261.6,103.8z M269.7,100.1V77.5c-1.1-0.8-2.2-1.5-3.5-1.9v26.7C267.5,101.7,268.6,101,269.7,100.1
	L269.7,100.1z M271.4,98.6c2.6-2.8,3.9-6.5,3.9-10.2c0.1-3.6-1.3-7-3.9-9.5V98.6z"/>
<path class="st0" d="M479.1,115.4c12.9,5.3,19.3,18,19.3,38.1c0,13-4.8,23.6-14.5,31.7s-21.8,12.2-36.4,12.2H398v-31.1h0.8v-93h-1
	V42.7h46c12.8-0.2,25,4.9,33.8,14.1c8.5,8.6,12.8,18.1,12.8,28.2C490.5,97.7,486.7,107.8,479.1,115.4z M400.5,73.2v93h3.5v-93H400.5
	z M409.4,166.3v-93h-3.7v93H409.4z M411.2,73.3v93h3.5v-93L411.2,73.3z M416.4,73.3v93h3.7v-93L416.4,73.3z M421.8,73.3v93h3.5v-93
	L421.8,73.3z M427,73.3v93h3.7v-31.5h-1.4l-0.2-30.9h1.5V73.2L427,73.3z M432.5,73.3v30.6h3.5V73.2L432.5,73.3z M432.5,134.8v31.5
	h3.5v-31.5H432.5z M437.7,103.8h3.7V73.2h-3.7V103.8z M439.6,134.8h-1.9v31.5h3.7v-31.5H439.6z M446.6,73.3h-3.5v30.6h3.5
	L446.6,73.3z M443.1,166.3h3.5v-31.5h-3.5V166.3z M448.3,103c1.3-0.3,2.5-0.7,3.7-1.4V75.4c-1.2-0.6-2.4-1.1-3.7-1.5V103z
	 M448.3,134.8v31.5h3.7v-31.5H448.3z M457.2,80c-0.9-1.4-2.1-2.6-3.5-3.5v24c1.3-0.9,2.5-2,3.5-3.3V80z M453.7,134.8v31.5
	c1.2,0,2.4-0.2,3.5-0.6v-30.2C456.1,135.2,454.9,134.9,453.7,134.8L453.7,134.8z M459,94.1c0.8-1.7,1.1-3.6,1.2-5.4
	c0-1.9-0.4-3.8-1.2-5.6V94.1z M459,136.1v28.8c1.3-0.4,2.5-1,3.7-1.7V138C461.5,137.3,460.2,136.7,459,136.1L459,136.1z
	 M464.4,161.6c2.3-2.6,3.5-6.1,3.5-10.6c0-4.9-1.2-8.6-3.5-11.2V161.6z"/>
<path class="st0" d="M619.7,197.2l-48.4,0.2l-4.3-4.3v4.3h-1.7v-5.9l-3.5-3.6v9.5h-1.7v-11.2l-3.5-3.5v14.7h-1.7v-16.6l-3.5-3.5
	v20.1h-1.7v-21.9l-3.5-3.5v25.3h-1.9v-27.1l-3.5-3.5v30.6H539v-32.3l-3.5-3.5v35.8h-1.7v-37.7l-3.5-3.5v41.2h-1.7v-42.9l-3.5-3.5
	v46.4h-1.7v-48.2l-3.5-3.5v51.6h-1.9V144l-3.5-3.5v56.9h-1.7v-58.9l-0.8-0.6v-32.6h0.8V73.6h-0.6V42.7h49.3c15.9,0,28.2,5,37.1,14.9
	c7.6,8.6,11.4,19.1,11.4,31.3c0.1,11.9-4.3,23.4-12.4,32.1c-9.5,10.6-22.5,15.9-38.9,15.9v1.7L619.7,197.2z M514.4,73.6v31.7h3.5
	V73.6H514.4z M519.9,105.4h3.5V73.6h-3.5V105.4z M525.1,105.4h3.5V73.6h-3.5V105.4z M530.3,105.4h3.5V73.6h-3.5V105.4z M535.5,105.4
	h3.5V73.6h-3.5L535.5,105.4z M540.9,105.4h3.5V73.6h-3.5V105.4z M546.2,105.4h3.5V73.6h-3.5V105.4z M551.4,105.4h3.5V73.6h-3.5
	V105.4z M558.3,73.6h-1.7v31.7h3.5V73.6H558.3z M565.5,104.2v-30l-3.5-0.6v31.1L565.5,104.2z M567.2,75v28.6
	c1.2-0.4,2.4-0.8,3.5-1.4V76.5C569.6,75.9,568.4,75.4,567.2,75L567.2,75z M575.9,82.3c-0.7-1.8-1.9-3.5-3.5-4.6v23.4
	c1.5-1.1,2.7-2.6,3.5-4.3V82.3z"/>
<path class="st0" d="M741.3,197.2l-15.5-31.3h-55.3l-16.1,31.5l-34.8-0.4l78.7-154.3l79.3,154.7L741.3,197.2z M671.5,164h53.6
	l-1.7-3.5h-50.1L671.5,164z M675.9,155.3l-1.7,3.5h48.2l-1.7-3.5H675.9z M718.1,149.8h-39.5l-1.7,3.7h42.9L718.1,149.8z
	 M715.4,144.6h-34l-1.7,3.5h37.5L715.4,144.6z M712.7,139.4h-28.6l-1.7,3.5h32.1L712.7,139.4z M710.2,134h-23.4l-1.7,3.5h26.9
	L710.2,134z M707.5,128.8h-18l-1.7,3.5h21.5L707.5,128.8z M704.9,123.5h-12.8l-1.7,3.5h16.2L704.9,123.5z M702.2,118.1h-7.3
	l-1.7,3.5H704L702.2,118.1z M701.3,116.4l-1.7-3.5h-1.9l-1.7,3.5H701.3z"/>
<path class="st0" d="M803.4,103.6c14.7,3.2,25,6.9,30.9,11c12,8.1,18,21.1,18,39.1c0,10.4-4.9,20.3-14.7,29.7
	c-9.8,9.3-20.5,14-32.1,14c-0.3,0-0.7-0.1-1-0.2v-61.9c-11.6-3-17.6-4.5-18-4.6c-9-3-16.9-8.5-22.8-15.9
	c-6.8-8.2-10.3-17.3-10.3-27.1c0-15.1,6.3-26.9,19-35.4c9.4-6.4,19.1-9.7,29.2-9.7v32.1h-0.2v28.4
	C802.1,103.4,802.7,103.5,803.4,103.6z M785.6,90.5c0.3,2.9,1.6,5.6,3.7,7.5V78.7c-2.4,2.1-3.8,5.1-3.7,8.3V90.5z M794.5,101.3V76
	c-1.2,0.3-2.4,0.7-3.5,1.4v22C792.1,100.2,793.3,100.8,794.5,101.3L794.5,101.3z M798,102.4c0.8,0.2,1.4,0.4,1.7,0.5V75
	c-1.2,0-2.3,0.2-3.5,0.4v26.5C796.6,102,797.2,102.2,798,102.4L798,102.4z M809.8,136.9l-3.5-1.2v30.2c1.2-0.2,2.3-0.4,3.5-0.8
	V136.9z M815,139.2c-1.1-0.7-2.2-1.3-3.5-1.7v26.9c1.2-0.5,2.4-1.1,3.5-1.9V139.2z M816.7,161.1c1.5-1.1,2.7-2.5,3.5-4.1v-13
	c-0.8-1.5-2-2.8-3.5-3.7L816.7,161.1z"/>
<path class="st0" d="M871.3,197.4V42.7h32.9v154.7H871.3z"/>
<path class="st0" d="M954.1,165.5V42.7h-1.9v122.8h-3.5V42.7H947v122.8h-3.5V42.7h-1.8v122.8h-3.5V42.7h-1.7v122.8h-3.5V42.7h-1.9
	v122.8h-3.5V42.7h-1.7v122.8h-3.5V42.7h-1.7v154.7h104.1v-31.9H954.1z"/>
<path class="st0" d="M1116.7,42.7v32.1H1221V42.7H1116.7z M1116.7,78.5v1.9h32.8v-1.9H1116.7z M1116.7,83.9v1.7h32.8v-1.7H1116.7z
	 M1116.7,89.1V91h32.8v-1.9L1116.7,89.1z M1116.7,94.5v1.7h32.8v-1.7H1116.7z M1116.7,99.8v1.9h32.8v-1.9H1116.7z M1116.7,105.5
	v32.7h64.2v-32.7H1116.7z M1116.7,142.5v1.8h32.8v-1.8H1116.7z M1116.7,147.7v1.7h32.8v-1.7H1116.7z M1116.7,153.1v1.7h32.8v-1.7
	H1116.7z M1116.7,158.3v1.7h32.8v-1.7H1116.7z M1116.7,163.8v1.7h32.8v-1.7L1116.7,163.8z M1116.7,169v1.7h32.8V169H1116.7z
	 M1116.7,174.4v1.8h32.8v-1.8H1116.7z M1116.7,179.6v1.7h32.8v-1.7H1116.7z M1116.7,185v1.7h32.8V185H1116.7z M1116.7,190.3v1.7
	h32.8v-1.7L1116.7,190.3z M1116.7,195.7v1.7h32.8v-1.7H1116.7z"/>
<path class="st0" d="M1235.3,84.5c5.3-10.6,13.1-19.7,22.6-26.7c13.8-10.1,28.9-15.1,45.3-15.1c21.1,0,39.2,7.5,54.1,22.6
	c14.9,15.1,22.3,33.3,22.3,54.7c0,21.4-7.4,39.7-22.3,54.7s-32.9,22.6-54.1,22.6c-21.1,0-39.2-7.5-54.1-22.6
	c-14.9-15.1-22.3-33.3-22.3-54.7C1226.7,107.7,1229.6,95.5,1235.3,84.5z M1257.1,120.4c-0.2,12.2,4.7,23.9,13.5,32.4
	c18.1,17.9,47.3,17.9,65.4,0c8.8-8.5,13.7-20.2,13.5-32.4v-2.5h-1.5v-9.3c-0.9-3.1-2.1-6.1-3.5-9.1v18.4h-1.9V96.5
	c-1-1.7-2.2-3.3-3.5-4.8v26.3h-1.7V89.5c-1.5-1.5-2.7-2.6-3.5-3.3v31.7h-1.7V84.7c-1.1-1-2.4-1.8-3.7-2.5v35.8h-1.7V81l-3.5-1.7
	v38.7h-1.7V78.5c-0.6-0.4-1.2-0.6-1.8-0.9c-0.8-0.3-1.4-0.5-1.8-0.7v41h-1.9V76.5c-0.4-0.1-1-0.3-1.7-0.5s-1.4-0.4-1.7-0.5v42.4
	h-1.7V75.4c-1.1-0.2-2.3-0.3-3.5-0.4v42.9h-1.7V74.8h-3.7v43.1h-1.7V74.8c-0.4,0-1,0-1.7,0.1c-0.6,0-1.2,0.1-1.7,0.3v42.7h-1.7V75.6
	c-1.2,0.2-2.3,0.4-3.5,0.8v41.6h-1.9v-41l-3.5,1.2v39.8h-1.7V78.9l-3.5,1.7v37.3h-1.7V81.8c-1.2,0.7-2.4,1.5-3.5,2.3v33.8h-1.9V85.4
	c-0.4,0.4-1,0.9-1.7,1.6c-0.8,0.7-1.4,1.3-1.7,1.6v29.2h-1.7V90.7c-1.2,1.5-2.4,3-3.5,4.6v22.6h-1.7V98.2c-1.4,2.3-2.5,4.8-3.5,7.3
	v12.4h-2.5L1257.1,120.4z"/>
<path class="st0" d="M1500.9,197.2l-48.4,0.2l-4.3-4.3v4.3h-1.7v-5.9l-3.5-3.6v9.5h-1.7v-11.2l-3.5-3.5v14.7h-1.7v-16.6l-3.5-3.5
	v20.1h-1.7v-21.9l-3.5-3.5v25.3h-1.9v-27.1l-3.5-3.5v30.6h-1.7v-32.3l-3.5-3.5v35.8h-1.7v-37.7l-3.5-3.5v41.2h-1.7v-42.9l-3.5-3.5
	v46.4h-1.7v-48.2l-3.5-3.5v51.6h-1.9V144l-3.5-3.5v56.9h-1.7v-58.9l-0.8-0.6v-32.6h0.8V73.6h-0.6V42.7h49.3c15.9,0,28.2,5,37.1,14.9
	c7.6,8.6,11.4,19.1,11.4,31.3c0.1,11.9-4.3,23.4-12.4,32.1c-9.5,10.6-22.5,15.9-38.9,15.9v1.7L1500.9,197.2z M1395.7,73.6v31.7h3.5
	V73.6H1395.7z M1401.1,105.4h3.5V73.6h-3.5V105.4z M1406.4,105.4h3.5V73.6h-3.5V105.4z M1411.6,105.4h3.5V73.6h-3.5V105.4z
	 M1416.8,105.4h3.5V73.6h-3.5V105.4z M1422.2,105.4h3.5V73.6h-3.5V105.4z M1427.5,105.4h3.5V73.6h-3.5V105.4z M1432.7,105.4h3.5
	V73.6h-3.5V105.4z M1439.6,73.6h-1.7v31.7h3.5V73.6H1439.6z M1446.8,104.2v-30l-3.5-0.6v31.1L1446.8,104.2z M1448.5,75v28.6
	c1.2-0.4,2.4-0.8,3.5-1.4V76.5C1450.9,75.9,1449.7,75.4,1448.5,75L1448.5,75z M1457.2,82.3c-0.7-1.8-1.9-3.5-3.5-4.6v23.4
	c1.5-1.1,2.7-2.6,3.5-4.3V82.3z"/>
<path class="st0" d="M1571.6,196.6h-1.7v-4.8l-3.5-8.3v13.2h-1.7v-17.4l-3.5-8.3v25.7h-1.7v-30l-3.5-8.3v38.5h-1.7v-42.7l-3.5-8.3
	v51.1h-1.7v-55.3l-3.5-8.3v63.6h-1.9v-67.9l-3.3-8.3v76.2h-1.9v-80.5l-3.5-8.3v88.8h-1.7v-93.2l-3.5-8.3v101.5h-1.7V91l-3.5-8.3
	v114.1h-1.7V78.5l-3.5-8.3v126.7h-1.7V65.9l-3.5-8.3v139.3h-1.7V53.3l-3.1-7.2v150.7h-1.7V42.7h0.4l31.9,0.2l48,113l-3.3,8.3h1.7
	v32.7h-1.7v-32.7l-5,13h1.5v19.7h-1.7v-19.1L1571.6,196.6z M1573.9,196.8v-5.4h1.7v5.4H1573.9z M1589.6,196.8v-46.6h1.7v46.6
	L1589.6,196.8z M1594.8,196.8v-60.3h1.7v60.3L1594.8,196.8z M1600,196.8v-72.7h1.7v72.7L1600,196.8z M1605.3,196.8v-85.7h1.7v85.7
	L1605.3,196.8z M1610.5,196.8V97.2h1.9v99.6L1610.5,196.8z M1615.7,196.8V82.3h1.9v114.5L1615.7,196.8z M1621.1,196.8V69h1.7v127.8
	L1621.1,196.8z M1626.3,196.6V55.5h1.7v141.2H1626.3z M1631,42.7l31.5,0.2l-0.6,154.5l-31.5-0.2L1631,42.7z"/>
<path class="st0" d="M1767.9,42.7v111.2c0,9.9-4.5,19.5-13.5,28.8c-9.7,9.8-20.5,14.7-32.5,14.7c-13.2,0-24.6-4.8-34.4-14.3
	c-8.9-8.8-13.3-18-13.3-27.7V42.7h31.1l0.4,105.8c0,2.5,0.3,5,1,7.4V42.7h1.7v116.8c1,1.4,2.2,2.7,3.5,3.9V42.7h1.9v121.7
	c1.1,0.6,2.3,1.1,3.5,1.4v-123h1.7v123.2c0.7,0.1,1.4,0.2,2.1,0.2h1.4V42.7h1.7v123.2c1.2-0.3,2.4-0.7,3.5-1.2v-122h1.7v121.1
	c1.5-0.8,2.7-2,3.5-3.5V42.7h1.9v113.9c0.7-2.7,1.1-5.4,1.2-8.1V42.7H1767.9z"/>
<path class="st0" d="M2012.7,197.2l-15.5-31.3h-55.3l-16.1,31.5L1891,197l78.7-154.3l79.3,154.7L2012.7,197.2z M1942.8,164h53.6
	l-1.7-3.5h-50.1L1942.8,164z M1947.3,155.3l-1.7,3.5h48.2l-1.7-3.5H1947.3z M1989.4,149.8H1950l-1.7,3.7h42.9L1989.4,149.8z
	 M1986.7,144.6h-34l-1.7,3.5h37.5L1986.7,144.6z M1984,139.4h-28.6l-1.7,3.5h32.1L1984,139.4z M1981.5,134h-23.4l-1.7,3.5h26.9
	L1981.5,134z M1978.8,128.8h-18l-1.7,3.5h21.5L1978.8,128.8z M1976.3,123.5h-12.8l-1.7,3.5h16.2L1976.3,123.5z M1973.6,118.1h-7.3
	l-1.7,3.5h10.8L1973.6,118.1z M1972.6,116.4l-1.7-3.5h-1.9l-1.7,3.5H1972.6z"/>
<path class="st0" d="M2220.1,42.7v111.2c0,9.9-4.5,19.5-13.5,28.8c-9.7,9.8-20.5,14.7-32.5,14.7c-13.2,0-24.6-4.8-34.4-14.3
	c-8.9-8.8-13.3-18-13.3-27.7V42.7h31.1l0.4,105.8c0,2.5,0.3,5,1,7.4V42.7h1.7v116.8c1,1.4,2.2,2.7,3.5,3.9V42.7h1.9v121.7
	c1.1,0.6,2.3,1.1,3.5,1.4v-123h1.7v123.2c0.7,0.1,1.4,0.2,2.1,0.2h1.4V42.7h1.7v123.2c1.2-0.3,2.4-0.7,3.5-1.2v-122h1.7v121.1
	c1.5-0.8,2.7-2,3.5-3.5V42.7h1.9v113.9c0.7-2.7,1.1-5.4,1.2-8.1V42.7H2220.1z"/>
<path class="st0" d="M2303.2,196.6h-1.7v-4.8l-3.5-8.3v13.2h-1.7v-17.4l-3.5-8.3v25.7h-1.7v-30l-3.5-8.3v38.5h-1.7v-42.7l-3.5-8.3
	v51.1h-1.7v-55.3l-3.5-8.3v63.6h-1.9v-67.9l-3.3-8.3v76.2h-1.9v-80.5l-3.5-8.3v88.8h-1.7v-93.2l-3.5-8.3v101.5h-1.7V91l-3.5-8.3
	v114.1h-1.7V78.5l-3.5-8.3v126.7h-1.7V65.9l-3.5-8.3v139.3h-1.7V53.3l-3.1-7.2v150.7h-1.7V42.7h0.4l31.9,0.2l48,113l-3.3,8.3h1.7
	v32.7h-1.7v-32.7l-5,13h1.5v19.7h-1.7v-19.1L2303.2,196.6z M2305.5,196.8v-5.4h1.7v5.4H2305.5z M2321.2,196.8v-46.6h1.7v46.6
	L2321.2,196.8z M2326.4,196.8v-60.3h1.7v60.3L2326.4,196.8z M2331.7,196.8v-72.7h1.7v72.7L2331.7,196.8z M2336.9,196.8v-85.7h1.7
	v85.7L2336.9,196.8z M2342.1,196.8V97.2h1.9v99.6L2342.1,196.8z M2347.3,196.8V82.3h1.9v114.5L2347.3,196.8z M2352.7,196.8V69h1.7
	v127.8L2352.7,196.8z M2358,196.6V55.5h1.7v141.2H2358z M2362.6,42.7l31.5,0.2l-0.6,154.5l-31.5-0.2L2362.6,42.7z"/>
<path class="st0" d="M1814.1,165.5V42.7h-1.9v122.8h-3.5V42.7h-1.7v122.8h-3.5V42.7h-1.8v122.8h-3.5V42.7h-1.7v122.8h-3.5V42.7h-1.9
	v122.8h-3.5V42.7h-1.7v122.8h-3.5V42.7h-1.7v154.7h104.1v-31.9H1814.1z"/>
</svg>
